PathFileType	4	(X/Y/Z)	D:\Long Term Storage\D'Arcy Smith\Coord18.trc
DataRate	CameraRate	NumFrames	NumMarkers	Units	OrigDataRate	OrigDataStartFrame	OrigNumFrames
120.00	120.00	      155	4	mm	120.00	1	      4787
Frame#	Time	M1			M2			M3			M4			
		X1	Y1	Z1	X2	Y2	Z2	X3	Y3	Z3	X4	Y4	Z4	

1	0.000	635.33624	380.20367	554.08008	970.48029	304.92407	148.10289							
2	0.008	633.41162	387.72314	561.37103	969.30298	300.46576	161.18219							
3	0.017	631.39569	394.99686	567.58533	968.14447	296.40802	174.73004							
4	0.025	629.25824	401.57599	572.89923	967.08124	292.67343	188.80940							
5	0.033	627.32050	407.54562	577.30951	966.16125	289.60797	203.34093							
6	0.042	625.46582	412.70999	580.98145	965.21301	286.89395	218.27283							
7	0.050	623.41241	417.03406	583.56915	964.13617	284.82553	233.40128							
8	0.058	621.44403	420.45276	585.56757	963.37964	283.37845	248.61224							
9	0.067	620.21802	422.93643	586.24957	962.30225	282.61734	263.82346							
10	0.075	617.68500	424.85675	586.94904	961.55487	282.61133	279.23743							
11	0.083	615.54938	425.74130	586.59454	960.88513	283.00769	294.36249							
12	0.092	613.90430	425.67230	585.32739	960.34534	284.26913	309.24954							
13	0.100	611.97784	424.70023	583.29291	959.65997	285.65073	324.97101							
14	0.108	610.16858	422.94257	580.55792	959.11945	287.61398	339.69806							
15	0.117	608.54791	420.45755	576.84619	958.80829	290.13068	354.25916							
16	0.125	607.03937	417.06311	572.39417	958.20190	293.27271	368.24207							
17	0.133	605.43091	412.87497	566.71112	958.11206	296.70538	382.09732							
18	0.142	604.24805	407.86420	560.29858	957.67035	300.62354	395.42313							
19	0.150	603.26996	402.06500	552.79456	957.74213	304.92267	408.03635							
20	0.158	602.49249	395.63596	544.08118	957.43787	309.74698	420.88922							
21	0.167	601.78949	388.14438	534.25128	957.09839	314.90991	431.32620							
22	0.175	601.17719	380.42801	523.27612	956.30298	320.57529	443.17673							
23	0.183	601.09637	372.53186	511.43594	956.50104	325.55148	454.57785							
24	0.192	601.38293	363.81506	497.98099	956.56580	330.86166	464.36377							
25	0.200	601.61011	355.61011	484.07489	956.78369	336.06409	474.30246							
26	0.208	601.60901	347.55255	469.27808	956.89954	341.62656	483.13449							
27	0.217	601.75165	339.62466	453.44867	956.80060	346.57712	491.58859							
28	0.225	601.37286	331.52505	436.28400	956.90656	351.83817	499.52438							
29	0.233	600.74567	323.99911	416.14120	957.10608	356.85391	506.86688							
30	0.242	600.29675	317.38007	398.13940	957.11816	361.91373	513.09656							
31	0.250	600.07806	311.50333	378.76816	957.04688	366.50735	519.46686							
32	0.258	599.64331	307.13480	359.71170	957.21521	371.09851	524.83972							
33	0.267	597.93024	303.10257	339.11295	957.16162	375.29153	529.38165							
34	0.275	596.98639	299.27338	317.55939	957.03040	379.27194	533.69165							
35	0.283	596.16376	296.93631	296.68903	956.76471	382.75702	537.48364							
36	0.292	595.45203	296.30264	276.55048	956.59021	385.79272	540.64294							
37	0.300	594.48413	296.02295	255.47632	956.35864	388.63770	543.41693							
38	0.308	593.15607	296.81381	234.42804	956.19757	390.57693	545.51868							
39	0.317	591.93927	298.50583	213.91261	955.83209	392.54129	546.95880							
40	0.325	590.14972	301.28378	192.32985	955.50214	393.89682	547.79578							
41	0.333	589.23682	305.41342	173.57146	955.20520	394.60519	548.46411							
42	0.342	586.38776	308.88681	152.92213	954.85144	395.19125	548.26923							
43	0.350	583.07135	314.41257	136.98001	954.39258	395.21094	547.82477							
44	0.358	580.28796	320.08920	120.56253	953.86865	394.66397	546.93005							
45	0.367	577.28705	325.94424	105.44973	953.10309	393.83212	545.25409							
46	0.375	574.03192	332.66867	90.59040	952.58063	392.42368	542.82562							
47	0.383	571.31549	338.80499	78.95138	951.97675	390.47418	540.41156							
48	0.392	568.39117	344.75534	68.23324	951.51282	388.00052	537.05908							
49	0.400	565.57654	350.22845	59.13547	950.87329	385.44913	533.00891							
50	0.408	563.20087	355.29669	51.95631	950.26630	382.16937	528.63623							
51	0.417	560.98535	359.74158	46.46378	949.93250	378.58734	523.35626							
52	0.425	558.71307	363.26254	42.81815	949.40112	374.78186	517.64526							
53	0.433	556.98212	365.92538	40.91106	949.04565	370.71585	511.35733							
54	0.442	555.47638	367.80231	40.48289	948.51721	366.56909	504.03940							
55	0.450	554.38904	368.60144	41.52858	948.14392	361.87946	497.17950							
56	0.458	553.47913	368.56647	43.78228	947.98285	357.52676	488.32309							
57	0.467	553.03632	367.51883	47.44825	947.73975	352.74973	479.32254							
58	0.475	552.82605	365.76694	52.21093	947.54163	347.71448	469.72925							
59	0.483	553.29718	363.19348	57.98384	947.42035	342.68176	459.48608							
60	0.492	554.04645	359.80917	64.83245	947.46252	337.73743	448.56720							
61	0.500	554.97308	355.84305	72.75509	947.69513	332.27991	436.97992							
62	0.508	556.53040	351.27090	81.11501	947.99469	327.51471	424.94022							
63	0.517	558.37390	346.26804	89.96423	948.34216	322.88351	412.36603							
64	0.525	561.03076	340.56906	100.69630	948.72498	318.29276	398.53934							
65	0.533	563.62067	335.10373	111.45394	949.37024	314.27942	385.08130							
66	0.542	566.57825	329.48544	122.88317	950.18335	310.64960	370.92841							
67	0.550	570.05603	323.78107	134.72783	951.08466	306.96893	355.49451							
68	0.558	573.57178	318.14453	147.07736	953.11700	303.64639	341.14139							
69	0.567	577.54980	312.81680	160.41328	953.67554	301.07568	325.44003							
70	0.575	581.99976	308.13217	175.54080	954.41180	299.22684	309.84192							
71	0.583	586.30841	303.44009	189.82669	956.55359	296.80429	294.18430							
72	0.592	590.84747	299.33652	204.80688	957.69989	296.13318	278.79657							
73	0.600	594.99335	295.04788	220.61452	958.86511	296.10098	263.55127							
74	0.608	599.90350	292.27847	236.85391	960.08777	296.47507	248.36647							
75	0.617	604.48773	289.85898	252.78275	961.56390	297.11221	233.94917							
76	0.625	608.95685	288.34161	269.22452	962.96375	298.44696	218.97112							
77	0.633	613.02075	286.88406	284.94186	964.56018	300.21365	204.65079							
78	0.642	617.39001	287.19559	301.75775	966.06818	302.28384	191.10960							
79	0.650	621.69305	288.55350	320.44342	967.51044	304.98596	178.32797							
80	0.658	625.76447	290.74518	336.20013	969.13525	307.75372	166.52873							
81	0.667	629.50232	293.35138	352.68896	969.31995	311.63739	154.41583							
82	0.675	632.52307	295.97104	367.83429	970.61816	314.95599	143.97586							
83	0.683	636.43451	300.41669	384.50339	971.66815	317.62204	134.67786							
84	0.692	639.77789	305.75610	400.56329	972.70135	321.12027	125.34538							
85	0.700	642.30273	310.66553	415.59656	973.69586	324.24567	117.22191							
86	0.708	645.45172	316.15234	430.28430	975.09784	327.85117	109.67345							
87	0.717	647.48291	321.97552	443.88635	975.93127	330.86536	102.65837							
88	0.725	649.42737	328.23715	457.16516	976.89587	334.01959	93.87066							
89	0.733	651.12726	335.03342	469.71365	977.67822	336.56067	88.67692							
90	0.742	652.53906	341.63525	480.15530	978.02972	338.31866	83.86654							
91	0.750	653.03021	349.69620	495.05276	978.74219	340.61826	79.56075							
92	0.758	654.38269	356.65057	505.07785	979.23407	342.20709	76.02907							
93	0.767	654.20697	364.16629	515.46777	979.53363	343.42267	73.23991							
94	0.775	654.90588	370.59839	524.62317	979.70239	344.40262	71.24343							
95	0.783	654.91693	377.76059	532.98181	979.86487	345.02386	69.75668							
96	0.792	654.43457	384.18164	540.18927	979.84949	345.20764	68.90192							
97	0.800	653.77612	391.11371	547.58484	979.79016	345.14160	68.92251							
98	0.808	653.44598	397.46664	554.03278	979.59705	344.61459	69.53371							
99	0.817	652.41858	403.61942	559.72089	979.29724	343.80753	70.92937							
100	0.825	651.55682	409.03796	564.61603	978.74847	342.22879	72.98846							
101	0.833	650.55615	414.18802	568.87866	978.62836	341.31107	75.41538							
102	0.842	649.41907	419.11014	572.74011	978.13965	339.65298	78.93394							
103	0.850	648.15356	423.29517	575.43115	977.69214	337.61252	83.04976							
104	0.858	646.81512	426.61163	577.29138	977.13928	335.29733	87.80717							
105	0.867	645.54462	429.76108	578.87219	976.91266	332.44748	93.29230							
106	0.875	644.34021	431.46890	579.35968	975.89606	330.16736	100.28683							
107	0.883	642.38568	433.26016	579.12976	975.99597	326.78381	107.36146							
108	0.892	640.99432	433.47510	577.95599	975.06226	323.22806	116.58659							
109	0.900	639.62152	432.09177	574.91858	974.95740	319.46860	125.44401							
110	0.908	638.44476	430.60925	572.88177	974.31824	316.11890	134.64288							
111	0.917	637.36511	427.56674	568.96478	973.72119	312.66174	144.44360							
112	0.925	636.32153	423.89069	564.07068	973.10529	309.03860	155.22902							
113	0.933	635.72784	419.38272	558.20062	972.50000	305.57898	166.47348							
114	0.942	634.98773	414.08783	551.61285	971.83167	302.29276	178.12056							
115	0.950	634.55591	407.51086	543.33008	971.15381	299.30051	190.69910							
116	0.958	633.85809	400.11334	533.90393	970.60284	296.42270	203.88554							
117	0.967	633.42426	392.36853	523.81348	969.97522	293.87653	217.24428							
118	0.975	632.89368	384.35318	512.70911	969.68164	291.89505	231.04936							
119	0.983	633.04626	375.39294	499.99442	969.34296	290.17056	244.84715							
120	0.992	632.35095	366.95026	486.73969	969.12463	288.80344	259.20148							
121	1.000	631.56989	358.56287	472.67990	968.82428	288.02542	273.49829							
122	1.008	630.70178	350.36707	457.65756	968.45642	287.60696	288.43900							
123	1.017	629.24341	341.82434	440.99847	968.56689	287.92065	302.90698							
124	1.025	627.73468	334.22156	425.90024	968.12854	289.16870	316.43143							
125	1.033	626.98889	327.48221	407.77078	968.48816	290.30185	333.00327							
126	1.042	623.91895	321.32996	389.78253	968.14343	292.37100	347.10129							
127	1.050	622.06451	316.65985	369.01611	968.21423	294.95148	361.49667							
128	1.058	620.45093	312.07742	352.00955	968.51514	298.21265	375.81497							
129	1.067	618.37909	307.37836	333.93451	968.66724	302.00955	389.09399							
130	1.075	616.35785	304.35147	315.10013	968.93152	306.15891	402.62204							
131	1.083	614.05414	302.35156	295.40320	969.10590	310.77887	414.75772							
132	1.092	611.62238	301.64990	275.21356	969.62079	316.69476	427.85138							
133	1.100	609.34491	301.36975	258.42984	970.27216	321.75098	440.42068							
134	1.108	606.74719	302.71222	238.54707	970.83990	327.26367	451.32443							
135	1.117	604.25940	304.36584	218.98470	971.56879	332.71570	462.38373							
136	1.125	601.68439	307.31711	201.62778	972.09796	338.52988	472.42877							
137	1.133	599.56317	311.59415	184.62665	971.90326	343.87906	481.98889							
138	1.142	597.38892	315.74146	169.76613	972.27417	350.14514	490.27585							
139	1.150	594.23767	320.25668	151.71771	973.00055	355.93475	499.12570							
140	1.158	592.07501	325.56052	136.64320	973.63062	361.70761	506.24918							
141	1.167	589.86945	331.29880	122.09587	974.25586	367.59991	513.36517							
142	1.175	587.79523	337.37906	108.49117	974.84296	372.93011	519.39362							
143	1.183	585.94904	343.65451	95.57496	975.20789	378.08466	525.30762							
144	1.192	583.67175	350.97610	83.32825	975.64667	382.77032	530.32233							
145	1.200	582.11029	357.51642	72.59044	976.04816	386.99139	535.19092							
146	1.208	580.52551	363.74826	62.69481	976.35559	390.77145	538.63171							
147	1.217	578.95459	369.89337	54.03669	976.81372	394.19714	542.08405							
148	1.225	577.58984	375.57321	46.66194	977.06879	397.30426	544.49872							
149	1.233	576.27100	380.72873	40.39394	977.30469	399.30130	546.68677							
150	1.242	575.19513	385.29312	35.42513	977.48425	401.15558	548.19659							
151	1.250	574.19617	389.12228	31.80292	977.64417	402.48428	548.94012							
152	1.258	573.46362	392.13492	29.27856	977.74988	403.14713	549.14282							
153	1.267	573.03925	394.32568	27.95508	977.76208	403.21460	548.98016							
154	1.275	572.68677	395.90997	27.49401	977.79041	402.77365	548.34882							
155	1.283	572.49640	396.44989	27.85862	977.72266	401.65665	547.14551							
